<svg width="55" height="55" viewBox="0 0 55 55" fill="none" xmlns="http://www.w3.org/2000/svg">
<g clip-path="url(#clip0_39_60)">
<mask id="mask0_39_60" style="mask-type:luminance" maskUnits="userSpaceOnUse" x="0" y="0" width="55" height="55">
<path d="M47 0H8C3.58172 0 0 3.58172 0 8V47C0 51.4183 3.58172 55 8 55H47C51.4183 55 55 51.4183 55 47V8C55 3.58172 51.4183 0 47 0Z" fill="white"/>
</mask>
<g mask="url(#mask0_39_60)">
<path d="M49.4333 51.0557H2.24696C1.65103 51.0557 1.0795 50.8003 0.658118 50.3457C0.236731 49.8913 0 49.2747 0 48.6319C0 47.989 0.236731 47.3725 0.658118 46.9179C1.0795 46.4633 1.65103 46.2079 2.24696 46.2079H49.4333C50.0292 46.2079 50.6007 46.4633 51.0221 46.9179C51.4435 47.3725 51.6803 47.989 51.6803 48.6319C51.6803 49.2747 51.4435 49.8913 51.0221 50.3457C50.6007 50.8003 50.0292 51.0557 49.4333 51.0557Z" fill="#F8FAFC"/>
<path d="M49.4333 30.4526H2.24696C1.65103 30.4526 1.0795 30.1973 0.658118 29.7427C0.236731 29.2882 0 28.6717 0 28.0288C0 27.386 0.236731 26.7694 0.658118 26.3148C1.0795 25.8604 1.65103 25.6049 2.24696 25.6049H49.4333C50.0292 25.6049 50.6007 25.8604 51.0221 26.3148C51.4435 26.7694 51.6803 27.386 51.6803 28.0288C51.6803 28.6717 51.4435 29.2882 51.0221 29.7427C50.6007 30.1973 50.0292 30.4526 49.4333 30.4526Z" fill="#0495DF"/>
<path d="M49.4333 9.84975H2.24696C1.65103 9.84975 1.0795 9.59442 0.658118 9.13983C0.236731 8.68527 0 8.06874 0 7.42589C0 6.78304 0.236731 6.16651 0.658118 5.71195C1.0795 5.25738 1.65103 5.00201 2.24696 5.00201H49.4333C50.0292 5.00201 50.6007 5.25738 51.0221 5.71195C51.4435 6.16651 51.6803 6.78304 51.6803 7.42589C51.6803 8.06874 51.4435 8.68527 51.0221 9.13983C50.6007 9.59442 50.0292 9.84975 49.4333 9.84975Z" fill="#1FB9FF"/>
<path d="M20 7C20 3.68629 17.3137 1 14 1C10.6863 1 8 3.68629 8 7C8 10.3137 10.6863 13 14 13C17.3137 13 20 10.3137 20 7Z" fill="#1FB9FF"/>
<path d="M43 27C43 23.6863 40.3137 21 37 21C33.6863 21 31 23.6863 31 27C31 30.3137 33.6863 33 37 33C40.3137 33 43 30.3137 43 27Z" fill="#0495DF"/>
<path d="M20 49C20 45.6863 17.3137 43 14 43C10.6863 43 8 45.6863 8 49C8 52.3137 10.6863 55 14 55C17.3137 55 20 52.3137 20 49Z" fill="#F8FAFC"/>
<path d="M49.4687 52.138C49.39 52.1465 49.3112 52.155 49.1468 52.097C48.9824 52.0389 48.811 51.9057 48.6395 51.7727L45.1248 45.6285L41.8763 49.1676C41.8116 49.3263 41.6612 49.4185 41.425 49.4441C41.3463 49.4526 41.1889 49.4697 41.1031 49.4031C40.86 49.3536 40.5958 49.0787 40.5679 48.7784L39.0279 32.253C38.9999 31.9525 39.1294 31.635 39.4373 31.5257C39.5089 31.442 39.6664 31.425 39.7451 31.4164C39.9026 31.3994 40.1458 31.4489 40.3172 31.5821L53.9625 41.4836C54.2197 41.6832 54.3265 41.9752 54.2757 42.2841C54.225 42.5932 53.9241 42.7775 53.6162 42.8868L48.6987 43.8753L52.3639 49.9271C52.4566 50.0688 52.4775 50.2942 52.4199 50.5281C52.3552 50.6869 52.2187 50.9293 52.0683 51.0214L49.8763 52.2455C49.7049 52.1123 49.5474 52.1294 49.4687 52.138Z" fill="#0F172A"/>
<path d="M39.8579 32.128L53.4612 42.0967L47.4437 43.2502L51.6425 50.2481L49.4454 51.4614L45.3974 44.372L41.3278 48.6608L39.8579 32.128ZM39.7243 30.6251C39.488 30.6495 39.3372 30.741 39.1075 30.8406C38.5763 31.123 38.2293 31.6898 38.2828 32.291L39.7526 48.8238C39.8061 49.425 40.2467 49.9103 40.818 50.0787C41.0677 50.2045 41.3039 50.1801 41.4614 50.1638C41.8552 50.1231 42.2356 49.9321 42.5306 49.674L44.9945 46.9922L47.9238 52.2255C48.1147 52.585 48.4564 52.853 48.8636 52.9625C49.0277 53.0214 49.264 52.997 49.4215 52.9807C49.6578 52.9562 49.8086 52.8647 50.0382 52.7651L52.2353 51.5519C52.6157 51.3609 52.904 51.0277 53.0281 50.6356C53.1522 50.2436 53.1121 49.7927 52.9279 49.5084L49.8479 44.3666L53.6802 43.6667C54.3036 43.5264 54.8215 43.0936 54.9322 42.5513C55.1218 42.0008 54.9041 41.3408 54.3982 41.0139L40.7949 31.0452C40.5251 30.6939 40.118 30.5843 39.7243 30.6251Z" fill="#F8FAFC"/>
</g>
</g>
<defs>
<clipPath id="clip0_39_60">
<rect width="55" height="55" fill="white"/>
</clipPath>
</defs>
</svg>
